<svg xmlns="http://www.w3.org/2000/svg" viewBox="0 0 393.619 393.619"><path d="M137.033 31.869c-9.83 15.67-25.29 24.54-41.5 26.62-21.19 2.73-43.66-6.15-56.51-26.62 11.34-18.07 30.17-27.1 49.01-27.1 2.51 0 5.01.16 7.5.48 16.21 2.08 31.67 10.95 41.5 26.62z" fill="#f9993a"/><path d="M137.033 31.869c-9.83 15.67-25.29 24.54-41.5 26.62-4.94-7.67-7.8-16.81-7.8-26.62s2.86-18.95 7.8-26.62c16.21 2.08 31.67 10.95 41.5 26.62z" fill="#f9d43a"/><circle cx="107.408" cy="31.369" r="8.486" fill="#4d4d4d"/><path d="M2.857 5.249A58.537 58.537 0 0 0 0 4.96v53.818a58.288 58.288 0 0 0 2.857-.289c16.21-2.08 31.67-10.95 41.5-26.62-9.83-15.67-25.29-24.54-41.5-26.62zm134.176 191.56c-9.83 15.67-25.29 24.54-41.5 26.62-21.19 2.73-43.66-6.15-56.51-26.62 11.34-18.07 30.17-27.1 49.01-27.1 2.51 0 5.01.16 7.5.48 16.21 2.08 31.67 10.95 41.5 26.62z" fill="#f9993a"/><path d="M137.033 196.809c-9.83 15.67-25.29 24.54-41.5 26.62-4.94-7.67-7.8-16.81-7.8-26.62s2.86-18.95 7.8-26.62c16.21 2.08 31.67 10.95 41.5 26.62z" fill="#f9d43a"/><circle cx="107.408" cy="196.309" r="8.486" fill="#4d4d4d"/><path d="M2.857 170.189A58.537 58.537 0 0 0 0 169.9v53.818a58.288 58.288 0 0 0 2.857-.289c16.21-2.08 31.67-10.95 41.5-26.62-9.83-15.67-25.29-24.54-41.5-26.62zm134.176 191.56c-9.83 15.67-25.29 24.54-41.5 26.62-21.19 2.73-43.66-6.15-56.51-26.62 11.34-18.07 30.17-27.1 49.01-27.1 2.51 0 5.01.16 7.5.48 16.21 2.08 31.67 10.95 41.5 26.62z" fill="#f9993a"/><path d="M137.033 361.749c-9.83 15.67-25.29 24.54-41.5 26.62-4.94-7.67-7.8-16.81-7.8-26.62s2.86-18.95 7.8-26.62c16.21 2.08 31.67 10.95 41.5 26.62z" fill="#f9d43a"/><circle cx="107.408" cy="361.249" r="8.486" fill="#4d4d4d"/><path d="M2.857 335.129A58.412 58.412 0 0 0 0 334.84v53.818a58.288 58.288 0 0 0 2.857-.289c16.21-2.08 31.67-10.95 41.5-26.62-9.83-15.67-25.29-24.54-41.5-26.62zm262.469-219.012c-9.83 15.67-25.29 24.54-41.5 26.62-21.19 2.73-43.66-6.15-56.51-26.62 11.34-18.07 30.17-27.1 49.01-27.1 2.51 0 5.01.16 7.5.48 16.21 2.08 31.67 10.95 41.5 26.62z" fill="#f9993a"/><path d="M265.326 116.117c-9.83 15.67-25.29 24.54-41.5 26.62-4.94-7.67-7.8-16.81-7.8-26.62s2.86-18.95 7.8-26.62c16.21 2.08 31.67 10.95 41.5 26.62z" fill="#f9d43a"/><circle cx="235.701" cy="115.617" r="8.486" fill="#4d4d4d"/><path d="M131.149 89.497a58.412 58.412 0 0 0-2.857-.289v53.818a58.288 58.288 0 0 0 2.857-.289c16.21-2.08 31.67-10.95 41.5-26.62-9.83-15.67-25.29-24.54-41.5-26.62zM265.326 292.117c-9.83 15.67-25.29 24.54-41.5 26.62-21.19 2.73-43.66-6.15-56.51-26.62 11.34-18.07 30.17-27.1 49.01-27.1 2.51 0 5.01.16 7.5.48 16.21 2.08 31.67 10.95 41.5 26.62z" fill="#f9993a"/><path d="M265.326 292.117c-9.83 15.67-25.29 24.54-41.5 26.62-4.94-7.67-7.8-16.81-7.8-26.62s2.86-18.95 7.8-26.62c16.21 2.08 31.67 10.95 41.5 26.62z" fill="#f9d43a"/><circle cx="235.701" cy="291.617" r="8.486" fill="#4d4d4d"/><path d="M131.149 265.497a58.412 58.412 0 0 0-2.857-.289v53.818a58.288 58.288 0 0 0 2.857-.289c16.21-2.08 31.67-10.95 41.5-26.62-9.83-15.67-25.29-24.54-41.5-26.62z" fill="#f9993a"/><g><path d="M393.619 196.809c-9.83 15.67-25.29 24.54-41.5 26.62-21.19 2.73-43.66-6.15-56.51-26.62 11.34-18.07 30.17-27.1 49.01-27.1 2.51 0 5.01.16 7.5.48 16.21 2.08 31.67 10.95 41.5 26.62z" fill="#f9993a"/><path d="M393.619 196.809c-9.83 15.67-25.29 24.54-41.5 26.62-4.94-7.67-7.8-16.81-7.8-26.62s2.86-18.95 7.8-26.62c16.21 2.08 31.67 10.95 41.5 26.62z" fill="#f9d43a"/><circle cx="363.994" cy="196.309" r="8.486" fill="#4d4d4d"/><path d="M259.442 170.189a58.412 58.412 0 0 0-2.857-.289v53.818a58.288 58.288 0 0 0 2.857-.289c16.21-2.08 31.67-10.95 41.5-26.62-9.83-15.67-25.29-24.54-41.5-26.62z" fill="#f9993a"/></g></svg>