<svg xmlns="http://www.w3.org/2000/svg" viewBox="0 0 460.833 460.833"><path d="M251.438 133.423l-11.401-44.209c-29.145-5.829-77.526 13.99-111.917 53.044s45.466 54.21 45.466 54.21l77.852-63.045z" fill="#d3b539"/><path d="M402.525 295.77H72.243c0-48.777 19.772-92.926 51.726-124.88 31.966-31.966 76.115-51.727 124.88-51.727 16.986 0 33.4 2.402 48.94 6.878 45.676 13.139 83.739 44.207 106.111 85.103-109.072-8.848-120.077 60.144-120.077 60.144h139.942l.035.245c1.726 12.836-8.323 24.237-21.275 24.237z" fill="#f9d43a"/><g fill="#d3b539"><path d="M82.009 290.613l-15.621 15.621c-18.333 18.333-48.056 18.333-66.388 0l15.621-15.621c18.332-18.333 48.055-18.333 66.388 0z"/><path d="M82.009 290.613l-15.621 15.621c-18.333 18.333-18.333 48.056 0 66.388l15.621-15.621c18.333-18.332 18.333-48.055 0-66.388z"/></g><path d="M224.373 253.804l-60.116-33.064a15.7 15.7 0 0 0-18.128 2.14l-2.769 2.517a15.7 15.7 0 0 0-3.946 17.621l12.291 29.703a15.702 15.702 0 0 0 16.11 9.616l56.559-5.801v-22.732zm178.152 41.966h-128.68c-31.185-101.448 22.943-168.504 23.945-169.728 45.676 13.139 83.739 44.207 106.111 85.103-109.072-8.848-120.077 60.144-120.077 60.144h139.942l.035.245c1.725 12.835-8.324 24.236-21.276 24.236z" fill="#d3b539"/><circle cx="339.129" cy="167.845" r="14.192" fill="#fff"/><circle cx="339.129" cy="167.845" r="8.683" fill="#4d4d4d"/><path fill="#d3b539" d="M395.055 210.589l.615 26.099-13.989-29.728zm8.885 62.96l18.019-18.889-11.128 30.912zm-24.699 0l18.02-18.889-11.128 30.912zm-24.698 0l18.02-18.889-11.129 30.912zm-24.698 0l18.02-18.889-11.129 30.912zm-24.699 0l18.02-18.889-11.128 30.912zm64.845-64.709l.615 26.099-13.99-29.728zm-27.393 1.881l5.723 25.472-19.549-26.407zm-25.803 9.999l10.981 23.685-24.692-21.674zm21.908-71.263l-5.403-4.443c.486-.59 12.107-14.569 31.368-24.731 17.957-9.474 46.084-17.182 78.107-.109l-3.291 6.172c-23.544-12.554-47.61-12.508-71.552.122-18.03 9.514-29.119 22.855-29.229 22.989z"/><circle cx="449.172" cy="126.69" r="11.658" fill="#f74b4b"/></svg>