<svg xmlns="http://www.w3.org/2000/svg" viewBox="0 0 512 512"><path fill="#80C7EA" d="M248.139 148.184l-55.53 4.88-28.79 31.37-43.19 10.451-21.25 35.139h81.58l51.859-14.187 50.332-20.44 21.56-33.678 3.759-49.785z"/><path fill="#BDDEF6" d="M372.269 184.434l-118.46 45.59h-72.85l30.85-45.42 61.69-9.799 34.97-62.871 44.56 30.17z"/><path fill="#2C9CCC" d="M180.959 230.024l-.118.44-37.11.235-15.142 33.417 43.337 93.985 72.783 142.784 35.06-43.191 9.25-46.269 55.67-13.881 27.58-53.98 35.51-18.509 11.08-95.031z"/><path fill="#2788B3" d="M244.709 500.885l-71.37-53.98-16.96-77.121-63.24-46.27 6.24-93.49h81.58l-18.41 68.81 43.18 38.56v49.35l30.09 43.19z"/><path fill="#DEEEF9" d="M245.877 105.664c-3.003-20.044-20.291-35.416-41.172-35.416a41.473 41.473 0 0 0-17.05 3.653c-.33-23.61-19.561-42.65-43.249-42.65-18.821 0-34.827 12.021-40.779 28.802-4.39-4.63-10.594-7.522-17.477-7.522-13.303 0-24.087 10.784-24.087 24.087 0 .47.017.937.044 1.4a30.644 30.644 0 0 0-13.541-3.136c-17 0-30.782 13.782-30.782 30.782h228.093z"/><path fill="#ACD7F2" d="M283.15 71.026c2.418-16.138 16.337-28.514 33.148-28.514a33.39 33.39 0 0 1 13.727 2.941c.266-19.009 15.748-34.338 34.82-34.338 15.153 0 28.04 9.678 32.832 23.189 3.534-3.727 8.529-6.056 14.071-6.056 10.71 0 19.393 8.682 19.393 19.393 0 .379-.014.754-.035 1.127a24.677 24.677 0 0 1 10.902-2.525c13.687 0 24.783 11.096 24.783 24.783H283.15z"/><path fill="#80C7EA" d="M331.549 174.805l-19.25 22.469-36.49 6.16-22 26.59h90.88l42.485-14.892 12.675-24.178z"/><path fill="#BDDEF6" d="M418.859 230.024h-74.17l55.16-39.07z"/><path d="M406.598 187.717c-.981-2.016-2.864-3.467-5.019-4.018l-24.005-5.674-17.723-38.984a7.49 7.49 0 0 0-2.624-3.107l-44.56-30.163c-2.373-1.607-5.612-1.676-8.067-.218l-58.844 35.357-53.805 4.732a7.501 7.501 0 0 0-4.868 2.399l-27.249 29.684-40.971 9.916a7.503 7.503 0 0 0-4.653 3.408l-19.063 31.519-3.786 15-5.706 85.489a7.499 7.499 0 0 0 3.054 6.552l60.95 44.598 16.357 74.351a7.5 7.5 0 0 0 2.801 4.37l71.369 53.983c.01.008.022.013.032.02 3.092 2.293 7.877 1.73 10.315-1.276l35.054-43.186a7.507 7.507 0 0 0 1.531-3.256l8.322-41.614 51.058-12.732a7.501 7.501 0 0 0 4.864-3.865l26.496-51.851 33.389-17.402a7.499 7.499 0 0 0 3.983-5.782l10.307-88.4-18.939-49.85zm-136.85 34.851l10.064-12.161 33.731-5.692a7.499 7.499 0 0 0 4.446-2.515l16.283-18.997 47.692 11.273-39.668 28.091-72.548.001zm127.228-20.341l9.896 20.341h-38.62l28.724-20.341zm-37.863-28.565l-25.836-6.107a7.5 7.5 0 0 0-7.419 2.418l-17.489 20.403-33.804 5.705a7.503 7.503 0 0 0-4.53 2.613l-19.758 23.874h-55.161l21.069-31.021 58.493-9.286a7.498 7.498 0 0 0 5.379-3.762l30.983-55.716 36.03 24.39 12.043 26.489zM125.43 201.485l40.152-9.718a7.493 7.493 0 0 0 3.76-2.218l26.824-29.22 52.628-4.628a7.522 7.522 0 0 0 3.206-1.042l36.269-21.792-19.548 35.152-58.093 9.223a7.5 7.5 0 0 0-5.028 3.193l-28.617 42.134h-64.305l12.752-21.084zm38.27 166.731a7.5 7.5 0 0 0-2.896-4.441l-59.908-43.835 5.498-82.372h64.792L155.3 296.941a7.498 7.498 0 0 0 2.25 7.533l40.681 36.323v45.998c0 1.533.47 3.03 1.347 4.288l29.034 41.667 6.448 51.476-54.988-41.592-16.372-74.418zm205.103-31.259a7.5 7.5 0 0 0-3.212 3.238l-26.032 50.944-52.354 13.056a7.499 7.499 0 0 0-5.54 5.806l-8.891 44.454-22.806 28.097-6.702-53.504a7.482 7.482 0 0 0-1.289-3.355l-28.746-41.254v-47a7.503 7.503 0 0 0-2.505-5.595l-39.743-35.484 15.73-58.791h223.723l-9.645 82.717-31.988 16.671zM17.783 113.209h228.094a7.497 7.497 0 0 0 7.417-8.611c-3.571-23.832-24.46-41.804-48.589-41.804-3.624 0-7.189.39-10.669 1.165-4.92-22.879-25.415-40.162-49.63-40.162-18.114 0-34.643 9.684-43.664 24.87a31.646 31.646 0 0 0-14.592-3.59c-14.449 0-26.663 9.752-30.406 23.02a38.45 38.45 0 0 0-7.178-.669c-21.109 0-38.282 17.173-38.282 38.282a7.498 7.498 0 0 0 7.499 7.499zm30.782-30.782c3.59 0 7.034.797 10.237 2.369a7.498 7.498 0 0 0 10.792-7.162 16.46 16.46 0 0 1-.031-.971c0-9.146 7.441-16.586 16.587-16.586 4.593 0 8.866 1.84 12.034 5.182a7.498 7.498 0 0 0 12.511-2.653c5.051-14.241 18.598-23.809 33.71-23.809 19.441 0 35.478 15.815 35.749 35.255a7.501 7.501 0 0 0 10.574 6.736 33.868 33.868 0 0 1 13.975-2.994c13.702 0 25.898 8.335 31.251 20.416H26.522c3.128-9.171 11.828-15.783 22.043-15.783zm393.444-43.639c-1.609 0-3.197.116-4.761.347-3.58-10.65-13.658-18.342-25.499-18.342a26.89 26.89 0 0 0-11.199 2.458c-7.66-12-21.062-19.59-35.704-19.59-19.691 0-36.434 13.708-41.058 32.081a41.034 41.034 0 0 0-7.49-.683c-20.145 0-37.584 15.005-40.565 34.902-.669 4.467 2.909 8.611 7.417 8.612h183.661c4.305 0 7.827-3.851 7.474-8.129-.337-17.514-14.686-31.656-32.276-31.656zM293.495 63.571c4.481-8.088 13.153-13.514 22.804-13.514 3.701 0 7.285.768 10.652 2.282 4.849 2.181 10.501-1.439 10.575-6.736.208-14.856 12.464-26.943 27.321-26.943 11.549 0 21.903 7.312 25.763 18.196 1.837 5.178 8.73 6.642 12.511 2.653a11.785 11.785 0 0 1 8.628-3.716c6.557 0 11.892 5.335 11.893 11.892 0 5.679 4.932 10.726 10.77 7.861a17.104 17.104 0 0 1 7.598-1.758c6.844 0 12.772 3.999 15.57 9.783H293.495z"/></svg>