<?xml version="1.0" encoding="iso-8859-1"?>
<svg version="1.1" id="Capa_1" xmlns="http://www.w3.org/2000/svg" xmlns:xlink="http://www.w3.org/1999/xlink" x="0px" y="0px"
   viewBox="0 0 512 512" style="enable-background:new 0 0 512 512;" xml:space="preserve">
  <polygon id="svg_1" fill="#80C7EA" points="248.139,148.184 192.609,153.064 163.819,184.434 120.629,194.885 99.379,230.024   180.959,230.024 232.818,215.837 283.15,195.397 304.71,161.719 308.469,111.934 "/>
  <polygon id="svg_2" fill="#BDDEF6" points="372.269,184.434 253.809,230.024 180.959,230.024 211.809,184.604 273.499,174.805   308.469,111.934 353.029,142.104 "/>
  <polygon id="svg_3" fill="#2C9CCC" points="180.959,230.024 180.841,230.464 143.731,230.699 128.589,264.116 171.926,358.101   244.709,500.885 279.769,457.694 289.019,411.425 344.689,397.544 372.269,343.564 407.779,325.055 418.859,230.024 "/>
  <polygon id="svg_4" fill="#2788B3" points="244.709,500.885 173.339,446.905 156.379,369.784 93.139,323.514 99.379,230.024   180.959,230.024 162.549,298.834 205.729,337.394 205.729,386.744 235.819,429.934 "/>
  <path id="svg_5" fill="#DEEEF9" d="m245.877,105.664c-3.003,-20.044 -20.291,-35.416 -41.172,-35.416c-6.077,0 -11.845,1.313 -17.05,3.653c-0.33,-23.61 -19.561,-42.65 -43.249,-42.65c-18.821,0 -34.827,12.021 -40.779,28.802c-4.39,-4.63 -10.594,-7.522 -17.477,-7.522c-13.303,0 -24.087,10.784 -24.087,24.087c0,0.47 0.017,0.937 0.044,1.4c-4.087,-2.006 -8.681,-3.136 -13.541,-3.136c-17,0 -30.782,13.782 -30.782,30.782l228.093,0z"/>
  <path id="svg_6" fill="#ACD7F2" d="m283.15,71.026c2.418,-16.138 16.337,-28.514 33.148,-28.514c4.893,0 9.536,1.057 13.727,2.941c0.266,-19.009 15.748,-34.338 34.82,-34.338c15.153,0 28.04,9.678 32.832,23.189c3.534,-3.727 8.529,-6.056 14.071,-6.056c10.71,0 19.393,8.682 19.393,19.393c0,0.379 -0.014,0.754 -0.035,1.127c3.291,-1.615 6.99,-2.525 10.902,-2.525c13.687,0 24.783,11.096 24.783,24.783l-183.641,0z"/>
  <polygon id="svg_7" fill="#80C7EA" points="331.549,174.805 312.299,197.274 275.809,203.434 253.809,230.024 344.689,230.024   387.174,215.132 399.849,190.954 "/>
  <polygon id="svg_8" fill="#BDDEF6" points="418.859,230.024 344.689,230.024 399.849,190.954 "/>
  <path id="svg_9" d="m406.598,187.717c-0.981,-2.016 -2.864,-3.467 -5.019,-4.018l-24.005,-5.674l-17.723,-38.984c-0.572,-1.258 -1.479,-2.333 -2.624,-3.107c0,0 -44.505,-30.126 -44.56,-30.163c-2.373,-1.607 -5.612,-1.676 -8.067,-0.218l-58.844,35.357l-53.805,4.732c-1.865,0.164 -3.602,1.02 -4.868,2.399l-27.249,29.684l-40.971,9.916c-1.943,0.471 -3.618,1.697 -4.653,3.408l-19.063,31.519l-3.786,15l-5.706,85.489c-0.171,2.563 0.981,5.036 3.054,6.552l60.95,44.598l16.357,74.351c0.384,1.744 1.377,3.293 2.801,4.37l71.369,53.983c0.01,0.008 0.022,0.013 0.032,0.02c3.092,2.293 7.877,1.73 10.315,-1.276l35.054,-43.186c0.767,-0.945 1.292,-2.063 1.531,-3.256l8.322,-41.614l51.058,-12.732c2.104,-0.525 3.877,-1.934 4.864,-3.865l26.496,-51.851l33.389,-17.402c2.204,-1.148 3.695,-3.314 3.983,-5.782l10.307,-88.4l-18.939,-49.85zm-136.85,34.851l10.064,-12.161l33.731,-5.692c1.73,-0.292 3.304,-1.182 4.446,-2.515l16.283,-18.997l47.692,11.273l-39.668,28.091l-72.548,0.001l0,0zm127.228,-20.341l9.896,20.341l-38.62,0l28.724,-20.341zm-37.863,-28.565l-25.836,-6.107c-2.73,-0.646 -5.593,0.288 -7.419,2.418l-17.489,20.403l-33.804,5.705c-1.774,0.299 -3.382,1.227 -4.53,2.613l-19.758,23.874l-55.161,0l21.069,-31.021l58.493,-9.286c2.276,-0.361 4.259,-1.748 5.379,-3.762l30.983,-55.716l36.03,24.39l12.043,26.489zm-233.683,27.823l40.152,-9.718c1.446,-0.35 2.755,-1.122 3.76,-2.218l26.824,-29.22l52.628,-4.628c1.134,-0.1 2.23,-0.457 3.206,-1.042l36.269,-21.792l-19.548,35.152l-58.093,9.223c-2.045,0.325 -3.865,1.48 -5.028,3.193l-28.617,42.134l-64.305,0l12.752,-21.084zm38.27,166.731c-0.393,-1.784 -1.422,-3.363 -2.896,-4.441l-59.908,-43.835l5.498,-82.372l64.792,0l-15.886,59.373c-0.732,2.734 0.138,5.648 2.25,7.533l40.681,36.323l0,45.998c0,1.533 0.47,3.03 1.347,4.288l29.034,41.667l6.448,51.476l-54.988,-41.592l-16.372,-74.418zm205.103,-31.259c-1.381,0.72 -2.504,1.852 -3.212,3.238l-26.032,50.944l-52.354,13.056c-2.814,0.701 -4.971,2.962 -5.54,5.806l-8.891,44.454l-22.806,28.097l-6.702,-53.504c-0.151,-1.207 -0.593,-2.358 -1.289,-3.355l-28.746,-41.254l0,-47c0,-2.136 -0.911,-4.171 -2.505,-5.595l-39.743,-35.484l15.73,-58.791l223.723,0l-9.645,82.717l-31.988,16.671z"/>
  <path id="svg_10" d="m17.783,113.209l228.094,0c2.183,0 4.258,-0.952 5.683,-2.605c1.425,-1.654 2.058,-3.847 1.734,-6.006c-3.571,-23.832 -24.46,-41.804 -48.589,-41.804c-3.624,0 -7.189,0.39 -10.669,1.165c-4.92,-22.879 -25.415,-40.162 -49.63,-40.162c-18.114,0 -34.643,9.684 -43.664,24.87c-4.473,-2.329 -9.485,-3.59 -14.592,-3.59c-14.449,0 -26.663,9.752 -30.406,23.02c-2.345,-0.445 -4.742,-0.669 -7.178,-0.669c-21.109,0 -38.282,17.173 -38.282,38.282c-0.001,4.141 3.357,7.499 7.499,7.499zm30.782,-30.782c3.59,0 7.034,0.797 10.237,2.369c2.393,1.175 5.23,0.99 7.451,-0.484s3.493,-4.017 3.341,-6.678c-0.019,-0.322 -0.031,-0.645 -0.031,-0.971c0,-9.146 7.441,-16.586 16.587,-16.586c4.593,0 8.866,1.84 12.034,5.182c1.795,1.894 4.445,2.719 6.998,2.177c2.553,-0.541 4.641,-2.37 5.513,-4.83c5.051,-14.241 18.598,-23.809 33.71,-23.809c19.441,0 35.478,15.815 35.749,35.255c0.036,2.525 1.34,4.864 3.47,6.221c2.131,1.357 4.802,1.55 7.104,0.515c4.418,-1.986 9.121,-2.994 13.975,-2.994c13.702,0 25.898,8.335 31.251,20.416l-209.432,0c3.128,-9.171 11.828,-15.783 22.043,-15.783z"/>
  <path id="svg_11" d="m442.009,38.788c-1.609,0 -3.197,0.116 -4.761,0.347c-3.58,-10.65 -13.658,-18.342 -25.499,-18.342c-3.888,0 -7.711,0.858 -11.199,2.458c-7.66,-12 -21.062,-19.59 -35.704,-19.59c-19.691,0 -36.434,13.708 -41.058,32.081c-2.454,-0.455 -4.955,-0.683 -7.49,-0.683c-20.145,0 -37.584,15.005 -40.565,34.902c-0.669,4.467 2.909,8.611 7.417,8.612c0,0 183.432,0 183.661,0c4.305,0 7.827,-3.851 7.474,-8.129c-0.337,-17.514 -14.686,-31.656 -32.276,-31.656zm-148.514,24.783c4.481,-8.088 13.153,-13.514 22.804,-13.514c3.701,0 7.285,0.768 10.652,2.282c4.849,2.181 10.501,-1.439 10.575,-6.736c0.208,-14.856 12.464,-26.943 27.321,-26.943c11.549,0 21.903,7.312 25.763,18.196c1.837,5.178 8.73,6.642 12.511,2.653c2.272,-2.396 5.336,-3.716 8.628,-3.716c6.557,0 11.892,5.335 11.893,11.892c0,5.679 4.932,10.726 10.77,7.861c2.376,-1.166 4.933,-1.758 7.598,-1.758c6.844,0 12.772,3.999 15.57,9.783l-164.085,0z"/>
  <g id="svg_12"/>
  <g id="svg_13"/>
  <g id="svg_14"/>
  <g id="svg_15"/>
  <g id="svg_16"/>
  <g id="svg_17"/>
  <g id="svg_18"/>
  <g id="svg_19"/>
  <g id="svg_20"/>
  <g id="svg_21"/>
  <g id="svg_22"/>
  <g id="svg_23"/>
  <g id="svg_24"/>
  <g id="svg_25"/>
  <g id="svg_26"/>
</svg>
