<svg xmlns="http://www.w3.org/2000/svg" viewBox="0 0 407.5 407.5"><path d="M161.25 123v207.5c0 18.2-14.8 33-33 33s-33-14.8-33-33V296c0-5.8 4.7-10.5 10.5-10.5s10.5 4.7 10.5 10.5v34.5c0 6.62 5.38 12 12 12s12-5.38 12-12V123c0-5.8 4.7-10.5 10.5-10.5s10.5 4.7 10.5 10.5zm151 173v34.5c0 18.2-14.8 33-33 33s-33-14.8-33-33V123c0-5.8 4.7-10.5 10.5-10.5s10.5 4.7 10.5 10.5v207.5c0 6.62 5.38 12 12 12s12-5.38 12-12V296c0-5.8 4.7-10.5 10.5-10.5s10.5 4.7 10.5 10.5zM196.58 167v230c0 5.8-4.7 10.5-10.5 10.5s-10.5-4.7-10.5-10.5V167c0-5.8 4.7-10.5 10.5-10.5s10.5 4.7 10.5 10.5zm35.34 0v230c0 5.8-4.7 10.5-10.5 10.5s-10.5-4.7-10.5-10.5V167c0-5.8 4.7-10.5 10.5-10.5s10.5 4.7 10.5 10.5z" fill="#af91e8"/><path d="M96.492 181.102c0 6.719 8.4 9.808 12.719 4.661 3.599-4.288 6.935-8.892 14.1-8.892 13.409 0 13.409 16.129 26.818 16.129 13.407 0 13.407-16.129 26.815-16.129 13.408 0 13.408 16.129 26.816 16.129 13.407 0 13.407-16.129 26.814-16.129S243.981 193 257.388 193c13.405 0 13.405-16.129 26.811-16.129 7.159 0 10.494 4.6 14.09 8.887 4.318 5.148 12.72 2.059 12.72-4.661V143H96.492v38.102z" fill="#8369c4"/><path d="M339.905 151c8.309 0 14.906-7.145 14.068-15.411C346.253 59.433 281.942 0 203.75 0S61.247 59.433 53.527 135.589C52.689 143.855 59.286 151 67.595 151h272.31z" fill="#c4a4f7"/><path d="M67.46 137c7.035-68.99 65.474-123 136.29-123s129.255 54.01 136.29 123H67.46z" fill="#c8aff9"/><circle cx="136.25" cy="91.5" r="16.5" fill="#8369c4"/><circle cx="270.25" cy="106.5" r="20.5" fill="#8369c4"/><circle cx="213.334" cy="57.083" r="14.084" fill="#8369c4"/><circle cx="186.208" cy="97.458" r="8.542" fill="#8369c4"/><circle cx="269.75" cy="66" r="8.542" fill="#8369c4"/><path fill="#6b58a8" d="M96.492 151h214.516v9.667H96.492z"/></svg>